<?xml version="1.0" encoding="utf-8" standalone="no"?>
<!DOCTYPE svg PUBLIC "-//W3C//DTD SVG 1.1//EN"
  "http://www.w3.org/Graphics/SVG/1.1/DTD/svg11.dtd">
<!-- Created with matplotlib (https://matplotlib.org/) -->
<svg height="263.63625pt" version="1.1" viewBox="0 0 370.942187 263.63625" width="370.942187pt" xmlns="http://www.w3.org/2000/svg" xmlns:xlink="http://www.w3.org/1999/xlink">
 <metadata>
  <rdf:RDF xmlns:cc="http://creativecommons.org/ns#" xmlns:dc="http://purl.org/dc/elements/1.1/" xmlns:rdf="http://www.w3.org/1999/02/22-rdf-syntax-ns#">
   <cc:Work>
    <dc:type rdf:resource="http://purl.org/dc/dcmitype/StillImage"/>
    <dc:date>2021-03-01T14:50:23.205081</dc:date>
    <dc:format>image/svg+xml</dc:format>
    <dc:creator>
     <cc:Agent>
      <dc:title>Matplotlib v3.3.4, https://matplotlib.org/</dc:title>
     </cc:Agent>
    </dc:creator>
   </cc:Work>
  </rdf:RDF>
 </metadata>
 <defs>
  <style type="text/css">*{stroke-linecap:butt;stroke-linejoin:round;}</style>
 </defs>
 <g id="figure_1">
  <g id="patch_1">
   <path d="M 0 263.63625 
L 370.942187 263.63625 
L 370.942187 0 
L 0 0 
z
" style="fill:none;"/>
  </g>
  <g id="axes_1">
   <g id="patch_2">
    <path d="M 28.942188 239.758125 
L 363.742188 239.758125 
L 363.742188 22.318125 
L 28.942188 22.318125 
z
" style="fill:#ffffff;"/>
   </g>
   <g id="PathCollection_1">
    <defs>
     <path d="M 0 3 
C 0.795609 3 1.55874 2.683901 2.12132 2.12132 
C 2.683901 1.55874 3 0.795609 3 0 
C 3 -0.795609 2.683901 -1.55874 2.12132 -2.12132 
C 1.55874 -2.683901 0.795609 -3 0 -3 
C -0.795609 -3 -1.55874 -2.683901 -2.12132 -2.12132 
C -2.683901 -1.55874 -3 -0.795609 -3 0 
C -3 0.795609 -2.683901 1.55874 -2.12132 2.12132 
C -1.55874 2.683901 -0.795609 3 0 3 
z
" id="m9472159fc7" style="stroke:#1f77b4;"/>
    </defs>
    <g clip-path="url(#pe4d78eae3c)">
     <use style="fill:#1f77b4;stroke:#1f77b4;" x="190.273621" xlink:href="#m9472159fc7" y="139.660434"/>
     <use style="fill:#1f77b4;stroke:#1f77b4;" x="174.359575" xlink:href="#m9472159fc7" y="229.874489"/>
     <use style="fill:#1f77b4;stroke:#1f77b4;" x="216.29989" xlink:href="#m9472159fc7" y="166.443626"/>
     <use style="fill:#1f77b4;stroke:#1f77b4;" x="139.209726" xlink:href="#m9472159fc7" y="153.060811"/>
     <use style="fill:#1f77b4;stroke:#1f77b4;" x="188.935021" xlink:href="#m9472159fc7" y="169.249303"/>
     <use style="fill:#1f77b4;stroke:#1f77b4;" x="174.110267" xlink:href="#m9472159fc7" y="186.283607"/>
     <use style="fill:#1f77b4;stroke:#1f77b4;" x="256.792966" xlink:href="#m9472159fc7" y="141.979659"/>
     <use style="fill:#1f77b4;stroke:#1f77b4;" x="149.58178" xlink:href="#m9472159fc7" y="132.086938"/>
     <use style="fill:#1f77b4;stroke:#1f77b4;" x="226.608872" xlink:href="#m9472159fc7" y="110.412386"/>
     <use style="fill:#1f77b4;stroke:#1f77b4;" x="178.627204" xlink:href="#m9472159fc7" y="167.381716"/>
     <use style="fill:#1f77b4;stroke:#1f77b4;" x="244.524233" xlink:href="#m9472159fc7" y="92.767895"/>
     <use style="fill:#1f77b4;stroke:#1f77b4;" x="89.207476" xlink:href="#m9472159fc7" y="167.15467"/>
     <use style="fill:#1f77b4;stroke:#1f77b4;" x="235.787688" xlink:href="#m9472159fc7" y="166.898493"/>
     <use style="fill:#1f77b4;stroke:#1f77b4;" x="94.490075" xlink:href="#m9472159fc7" y="109.913595"/>
     <use style="fill:#1f77b4;stroke:#1f77b4;" x="123.536667" xlink:href="#m9472159fc7" y="219.398444"/>
     <use style="fill:#1f77b4;stroke:#1f77b4;" x="44.160369" xlink:href="#m9472159fc7" y="204.931026"/>
     <use style="fill:#1f77b4;stroke:#1f77b4;" x="222.402691" xlink:href="#m9472159fc7" y="133.76921"/>
     <use style="fill:#1f77b4;stroke:#1f77b4;" x="246.853038" xlink:href="#m9472159fc7" y="161.873127"/>
     <use style="fill:#1f77b4;stroke:#1f77b4;" x="190.992233" xlink:href="#m9472159fc7" y="125.046402"/>
     <use style="fill:#1f77b4;stroke:#1f77b4;" x="183.20407" xlink:href="#m9472159fc7" y="199.2954"/>
     <use style="fill:#1f77b4;stroke:#1f77b4;" x="142.016987" xlink:href="#m9472159fc7" y="103.70461"/>
     <use style="fill:#1f77b4;stroke:#1f77b4;" x="111.240387" xlink:href="#m9472159fc7" y="69.105069"/>
     <use style="fill:#1f77b4;stroke:#1f77b4;" x="198.39003" xlink:href="#m9472159fc7" y="110.674597"/>
     <use style="fill:#1f77b4;stroke:#1f77b4;" x="146.258693" xlink:href="#m9472159fc7" y="89.727893"/>
     <use style="fill:#1f77b4;stroke:#1f77b4;" x="275.72584" xlink:href="#m9472159fc7" y="32.201761"/>
     <use style="fill:#1f77b4;stroke:#1f77b4;" x="152.936088" xlink:href="#m9472159fc7" y="179.374791"/>
     <use style="fill:#1f77b4;stroke:#1f77b4;" x="160.996249" xlink:href="#m9472159fc7" y="221.871043"/>
     <use style="fill:#1f77b4;stroke:#1f77b4;" x="66.807586" xlink:href="#m9472159fc7" y="98.127367"/>
     <use style="fill:#1f77b4;stroke:#1f77b4;" x="167.799427" xlink:href="#m9472159fc7" y="134.123875"/>
     <use style="fill:#1f77b4;stroke:#1f77b4;" x="61.130731" xlink:href="#m9472159fc7" y="184.67915"/>
     <use style="fill:#1f77b4;stroke:#1f77b4;" x="225.293571" xlink:href="#m9472159fc7" y="156.303239"/>
     <use style="fill:#1f77b4;stroke:#1f77b4;" x="191.279635" xlink:href="#m9472159fc7" y="165.002363"/>
     <use style="fill:#1f77b4;stroke:#1f77b4;" x="146.614796" xlink:href="#m9472159fc7" y="219.966907"/>
     <use style="fill:#1f77b4;stroke:#1f77b4;" x="191.577902" xlink:href="#m9472159fc7" y="142.718822"/>
     <use style="fill:#1f77b4;stroke:#1f77b4;" x="191.843971" xlink:href="#m9472159fc7" y="149.56909"/>
     <use style="fill:#1f77b4;stroke:#1f77b4;" x="348.524006" xlink:href="#m9472159fc7" y="168.77047"/>
     <use style="fill:#1f77b4;stroke:#1f77b4;" x="153.428509" xlink:href="#m9472159fc7" y="60.983817"/>
     <use style="fill:#1f77b4;stroke:#1f77b4;" x="121.29272" xlink:href="#m9472159fc7" y="85.799354"/>
     <use style="fill:#1f77b4;stroke:#1f77b4;" x="99.652331" xlink:href="#m9472159fc7" y="126.677285"/>
     <use style="fill:#1f77b4;stroke:#1f77b4;" x="165.616787" xlink:href="#m9472159fc7" y="139.88384"/>
     <use style="fill:#1f77b4;stroke:#1f77b4;" x="73.174267" xlink:href="#m9472159fc7" y="126.601037"/>
     <use style="fill:#1f77b4;stroke:#1f77b4;" x="228.432093" xlink:href="#m9472159fc7" y="188.857187"/>
     <use style="fill:#1f77b4;stroke:#1f77b4;" x="113.937561" xlink:href="#m9472159fc7" y="155.224437"/>
     <use style="fill:#1f77b4;stroke:#1f77b4;" x="189.580006" xlink:href="#m9472159fc7" y="116.882108"/>
     <use style="fill:#1f77b4;stroke:#1f77b4;" x="138.078109" xlink:href="#m9472159fc7" y="71.487341"/>
     <use style="fill:#1f77b4;stroke:#1f77b4;" x="246.480828" xlink:href="#m9472159fc7" y="86.989689"/>
     <use style="fill:#1f77b4;stroke:#1f77b4;" x="187.207195" xlink:href="#m9472159fc7" y="163.486986"/>
     <use style="fill:#1f77b4;stroke:#1f77b4;" x="159.03985" xlink:href="#m9472159fc7" y="114.879343"/>
     <use style="fill:#1f77b4;stroke:#1f77b4;" x="233.938295" xlink:href="#m9472159fc7" y="122.215536"/>
     <use style="fill:#1f77b4;stroke:#1f77b4;" x="205.824837" xlink:href="#m9472159fc7" y="85.719559"/>
     <use style="fill:#1f77b4;stroke:#1f77b4;" x="148.810308" xlink:href="#m9472159fc7" y="131.378831"/>
     <use style="fill:#1f77b4;stroke:#1f77b4;" x="137.041863" xlink:href="#m9472159fc7" y="127.274669"/>
     <use style="fill:#1f77b4;stroke:#1f77b4;" x="134.163662" xlink:href="#m9472159fc7" y="104.282337"/>
     <use style="fill:#1f77b4;stroke:#1f77b4;" x="162.718399" xlink:href="#m9472159fc7" y="102.321652"/>
     <use style="fill:#1f77b4;stroke:#1f77b4;" x="176.096263" xlink:href="#m9472159fc7" y="201.759927"/>
     <use style="fill:#1f77b4;stroke:#1f77b4;" x="170.335618" xlink:href="#m9472159fc7" y="150.77701"/>
     <use style="fill:#1f77b4;stroke:#1f77b4;" x="277.302574" xlink:href="#m9472159fc7" y="155.36097"/>
     <use style="fill:#1f77b4;stroke:#1f77b4;" x="129.878898" xlink:href="#m9472159fc7" y="143.338699"/>
     <use style="fill:#1f77b4;stroke:#1f77b4;" x="104.535006" xlink:href="#m9472159fc7" y="200.942693"/>
     <use style="fill:#1f77b4;stroke:#1f77b4;" x="153.969215" xlink:href="#m9472159fc7" y="140.987269"/>
     <use style="fill:#1f77b4;stroke:#1f77b4;" x="175.066376" xlink:href="#m9472159fc7" y="165.007132"/>
     <use style="fill:#1f77b4;stroke:#1f77b4;" x="96.577032" xlink:href="#m9472159fc7" y="197.360195"/>
     <use style="fill:#1f77b4;stroke:#1f77b4;" x="169.225177" xlink:href="#m9472159fc7" y="145.413859"/>
     <use style="fill:#1f77b4;stroke:#1f77b4;" x="177.540586" xlink:href="#m9472159fc7" y="203.524703"/>
    </g>
   </g>
   <g id="matplotlib.axis_1">
    <g id="xtick_1">
     <g id="line2d_1">
      <defs>
       <path d="M 0 0 
L 0 3.5 
" id="m1d5383c51f" style="stroke:#000000;stroke-width:0.8;"/>
      </defs>
      <g>
       <use style="stroke:#000000;stroke-width:0.8;" x="55.079644" xlink:href="#m1d5383c51f" y="239.758125"/>
      </g>
     </g>
     <g id="text_1">
      <!-- −2 -->
      <g transform="translate(47.70855 254.356563)scale(0.1 -0.1)">
       <defs>
        <path d="M 10.59375 35.5 
L 73.1875 35.5 
L 73.1875 27.203125 
L 10.59375 27.203125 
z
" id="DejaVuSans-8722"/>
        <path d="M 19.1875 8.296875 
L 53.609375 8.296875 
L 53.609375 0 
L 7.328125 0 
L 7.328125 8.296875 
Q 12.9375 14.109375 22.625 23.890625 
Q 32.328125 33.6875 34.8125 36.53125 
Q 39.546875 41.84375 41.421875 45.53125 
Q 43.3125 49.21875 43.3125 52.78125 
Q 43.3125 58.59375 39.234375 62.25 
Q 35.15625 65.921875 28.609375 65.921875 
Q 23.96875 65.921875 18.8125 64.3125 
Q 13.671875 62.703125 7.8125 59.421875 
L 7.8125 69.390625 
Q 13.765625 71.78125 18.9375 73 
Q 24.125 74.21875 28.421875 74.21875 
Q 39.75 74.21875 46.484375 68.546875 
Q 53.21875 62.890625 53.21875 53.421875 
Q 53.21875 48.921875 51.53125 44.890625 
Q 49.859375 40.875 45.40625 35.40625 
Q 44.1875 33.984375 37.640625 27.21875 
Q 31.109375 20.453125 19.1875 8.296875 
z
" id="DejaVuSans-50"/>
       </defs>
       <use xlink:href="#DejaVuSans-8722"/>
       <use x="83.789062" xlink:href="#DejaVuSans-50"/>
      </g>
     </g>
    </g>
    <g id="xtick_2">
     <g id="line2d_2">
      <g>
       <use style="stroke:#000000;stroke-width:0.8;" x="110.118025" xlink:href="#m1d5383c51f" y="239.758125"/>
      </g>
     </g>
     <g id="text_2">
      <!-- −1 -->
      <g transform="translate(102.746931 254.356563)scale(0.1 -0.1)">
       <defs>
        <path d="M 12.40625 8.296875 
L 28.515625 8.296875 
L 28.515625 63.921875 
L 10.984375 60.40625 
L 10.984375 69.390625 
L 28.421875 72.90625 
L 38.28125 72.90625 
L 38.28125 8.296875 
L 54.390625 8.296875 
L 54.390625 0 
L 12.40625 0 
z
" id="DejaVuSans-49"/>
       </defs>
       <use xlink:href="#DejaVuSans-8722"/>
       <use x="83.789062" xlink:href="#DejaVuSans-49"/>
      </g>
     </g>
    </g>
    <g id="xtick_3">
     <g id="line2d_3">
      <g>
       <use style="stroke:#000000;stroke-width:0.8;" x="165.156406" xlink:href="#m1d5383c51f" y="239.758125"/>
      </g>
     </g>
     <g id="text_3">
      <!-- 0 -->
      <g transform="translate(161.975156 254.356563)scale(0.1 -0.1)">
       <defs>
        <path d="M 31.78125 66.40625 
Q 24.171875 66.40625 20.328125 58.90625 
Q 16.5 51.421875 16.5 36.375 
Q 16.5 21.390625 20.328125 13.890625 
Q 24.171875 6.390625 31.78125 6.390625 
Q 39.453125 6.390625 43.28125 13.890625 
Q 47.125 21.390625 47.125 36.375 
Q 47.125 51.421875 43.28125 58.90625 
Q 39.453125 66.40625 31.78125 66.40625 
z
M 31.78125 74.21875 
Q 44.046875 74.21875 50.515625 64.515625 
Q 56.984375 54.828125 56.984375 36.375 
Q 56.984375 17.96875 50.515625 8.265625 
Q 44.046875 -1.421875 31.78125 -1.421875 
Q 19.53125 -1.421875 13.0625 8.265625 
Q 6.59375 17.96875 6.59375 36.375 
Q 6.59375 54.828125 13.0625 64.515625 
Q 19.53125 74.21875 31.78125 74.21875 
z
" id="DejaVuSans-48"/>
       </defs>
       <use xlink:href="#DejaVuSans-48"/>
      </g>
     </g>
    </g>
    <g id="xtick_4">
     <g id="line2d_4">
      <g>
       <use style="stroke:#000000;stroke-width:0.8;" x="220.194787" xlink:href="#m1d5383c51f" y="239.758125"/>
      </g>
     </g>
     <g id="text_4">
      <!-- 1 -->
      <g transform="translate(217.013537 254.356563)scale(0.1 -0.1)">
       <use xlink:href="#DejaVuSans-49"/>
      </g>
     </g>
    </g>
    <g id="xtick_5">
     <g id="line2d_5">
      <g>
       <use style="stroke:#000000;stroke-width:0.8;" x="275.233168" xlink:href="#m1d5383c51f" y="239.758125"/>
      </g>
     </g>
     <g id="text_5">
      <!-- 2 -->
      <g transform="translate(272.051918 254.356563)scale(0.1 -0.1)">
       <use xlink:href="#DejaVuSans-50"/>
      </g>
     </g>
    </g>
    <g id="xtick_6">
     <g id="line2d_6">
      <g>
       <use style="stroke:#000000;stroke-width:0.8;" x="330.271549" xlink:href="#m1d5383c51f" y="239.758125"/>
      </g>
     </g>
     <g id="text_6">
      <!-- 3 -->
      <g transform="translate(327.090299 254.356563)scale(0.1 -0.1)">
       <defs>
        <path d="M 40.578125 39.3125 
Q 47.65625 37.796875 51.625 33 
Q 55.609375 28.21875 55.609375 21.1875 
Q 55.609375 10.40625 48.1875 4.484375 
Q 40.765625 -1.421875 27.09375 -1.421875 
Q 22.515625 -1.421875 17.65625 -0.515625 
Q 12.796875 0.390625 7.625 2.203125 
L 7.625 11.71875 
Q 11.71875 9.328125 16.59375 8.109375 
Q 21.484375 6.890625 26.8125 6.890625 
Q 36.078125 6.890625 40.9375 10.546875 
Q 45.796875 14.203125 45.796875 21.1875 
Q 45.796875 27.640625 41.28125 31.265625 
Q 36.765625 34.90625 28.71875 34.90625 
L 20.21875 34.90625 
L 20.21875 43.015625 
L 29.109375 43.015625 
Q 36.375 43.015625 40.234375 45.921875 
Q 44.09375 48.828125 44.09375 54.296875 
Q 44.09375 59.90625 40.109375 62.90625 
Q 36.140625 65.921875 28.71875 65.921875 
Q 24.65625 65.921875 20.015625 65.03125 
Q 15.375 64.15625 9.8125 62.3125 
L 9.8125 71.09375 
Q 15.4375 72.65625 20.34375 73.4375 
Q 25.25 74.21875 29.59375 74.21875 
Q 40.828125 74.21875 47.359375 69.109375 
Q 53.90625 64.015625 53.90625 55.328125 
Q 53.90625 49.265625 50.4375 45.09375 
Q 46.96875 40.921875 40.578125 39.3125 
z
" id="DejaVuSans-51"/>
       </defs>
       <use xlink:href="#DejaVuSans-51"/>
      </g>
     </g>
    </g>
   </g>
   <g id="matplotlib.axis_2">
    <g id="ytick_1">
     <g id="line2d_7">
      <defs>
       <path d="M 0 0 
L -3.5 0 
" id="mac93eb4bb0" style="stroke:#000000;stroke-width:0.8;"/>
      </defs>
      <g>
       <use style="stroke:#000000;stroke-width:0.8;" x="28.942188" xlink:href="#mac93eb4bb0" y="234.34109"/>
      </g>
     </g>
     <g id="text_7">
      <!-- −2 -->
      <g transform="translate(7.2 238.140309)scale(0.1 -0.1)">
       <use xlink:href="#DejaVuSans-8722"/>
       <use x="83.789062" xlink:href="#DejaVuSans-50"/>
      </g>
     </g>
    </g>
    <g id="ytick_2">
     <g id="line2d_8">
      <g>
       <use style="stroke:#000000;stroke-width:0.8;" x="28.942188" xlink:href="#mac93eb4bb0" y="189.850266"/>
      </g>
     </g>
     <g id="text_8">
      <!-- −1 -->
      <g transform="translate(7.2 193.649484)scale(0.1 -0.1)">
       <use xlink:href="#DejaVuSans-8722"/>
       <use x="83.789062" xlink:href="#DejaVuSans-49"/>
      </g>
     </g>
    </g>
    <g id="ytick_3">
     <g id="line2d_9">
      <g>
       <use style="stroke:#000000;stroke-width:0.8;" x="28.942188" xlink:href="#mac93eb4bb0" y="145.359441"/>
      </g>
     </g>
     <g id="text_9">
      <!-- 0 -->
      <g transform="translate(15.579688 149.15866)scale(0.1 -0.1)">
       <use xlink:href="#DejaVuSans-48"/>
      </g>
     </g>
    </g>
    <g id="ytick_4">
     <g id="line2d_10">
      <g>
       <use style="stroke:#000000;stroke-width:0.8;" x="28.942188" xlink:href="#mac93eb4bb0" y="100.868616"/>
      </g>
     </g>
     <g id="text_10">
      <!-- 1 -->
      <g transform="translate(15.579688 104.667835)scale(0.1 -0.1)">
       <use xlink:href="#DejaVuSans-49"/>
      </g>
     </g>
    </g>
    <g id="ytick_5">
     <g id="line2d_11">
      <g>
       <use style="stroke:#000000;stroke-width:0.8;" x="28.942188" xlink:href="#mac93eb4bb0" y="56.377791"/>
      </g>
     </g>
     <g id="text_11">
      <!-- 2 -->
      <g transform="translate(15.579688 60.17701)scale(0.1 -0.1)">
       <use xlink:href="#DejaVuSans-50"/>
      </g>
     </g>
    </g>
   </g>
   <g id="patch_3">
    <path d="M 28.942188 239.758125 
L 28.942188 22.318125 
" style="fill:none;stroke:#000000;stroke-linecap:square;stroke-linejoin:miter;stroke-width:0.8;"/>
   </g>
   <g id="patch_4">
    <path d="M 363.742188 239.758125 
L 363.742188 22.318125 
" style="fill:none;stroke:#000000;stroke-linecap:square;stroke-linejoin:miter;stroke-width:0.8;"/>
   </g>
   <g id="patch_5">
    <path d="M 28.942188 239.758125 
L 363.742188 239.758125 
" style="fill:none;stroke:#000000;stroke-linecap:square;stroke-linejoin:miter;stroke-width:0.8;"/>
   </g>
   <g id="patch_6">
    <path d="M 28.942188 22.318125 
L 363.742188 22.318125 
" style="fill:none;stroke:#000000;stroke-linecap:square;stroke-linejoin:miter;stroke-width:0.8;"/>
   </g>
   <g id="text_12">
    <!-- Input data -->
    <g transform="translate(165.384063 16.318125)scale(0.12 -0.12)">
     <defs>
      <path d="M 9.8125 72.90625 
L 19.671875 72.90625 
L 19.671875 0 
L 9.8125 0 
z
" id="DejaVuSans-73"/>
      <path d="M 54.890625 33.015625 
L 54.890625 0 
L 45.90625 0 
L 45.90625 32.71875 
Q 45.90625 40.484375 42.875 44.328125 
Q 39.84375 48.1875 33.796875 48.1875 
Q 26.515625 48.1875 22.3125 43.546875 
Q 18.109375 38.921875 18.109375 30.90625 
L 18.109375 0 
L 9.078125 0 
L 9.078125 54.6875 
L 18.109375 54.6875 
L 18.109375 46.1875 
Q 21.34375 51.125 25.703125 53.5625 
Q 30.078125 56 35.796875 56 
Q 45.21875 56 50.046875 50.171875 
Q 54.890625 44.34375 54.890625 33.015625 
z
" id="DejaVuSans-110"/>
      <path d="M 18.109375 8.203125 
L 18.109375 -20.796875 
L 9.078125 -20.796875 
L 9.078125 54.6875 
L 18.109375 54.6875 
L 18.109375 46.390625 
Q 20.953125 51.265625 25.265625 53.625 
Q 29.59375 56 35.59375 56 
Q 45.5625 56 51.78125 48.09375 
Q 58.015625 40.1875 58.015625 27.296875 
Q 58.015625 14.40625 51.78125 6.484375 
Q 45.5625 -1.421875 35.59375 -1.421875 
Q 29.59375 -1.421875 25.265625 0.953125 
Q 20.953125 3.328125 18.109375 8.203125 
z
M 48.6875 27.296875 
Q 48.6875 37.203125 44.609375 42.84375 
Q 40.53125 48.484375 33.40625 48.484375 
Q 26.265625 48.484375 22.1875 42.84375 
Q 18.109375 37.203125 18.109375 27.296875 
Q 18.109375 17.390625 22.1875 11.75 
Q 26.265625 6.109375 33.40625 6.109375 
Q 40.53125 6.109375 44.609375 11.75 
Q 48.6875 17.390625 48.6875 27.296875 
z
" id="DejaVuSans-112"/>
      <path d="M 8.5 21.578125 
L 8.5 54.6875 
L 17.484375 54.6875 
L 17.484375 21.921875 
Q 17.484375 14.15625 20.5 10.265625 
Q 23.53125 6.390625 29.59375 6.390625 
Q 36.859375 6.390625 41.078125 11.03125 
Q 45.3125 15.671875 45.3125 23.6875 
L 45.3125 54.6875 
L 54.296875 54.6875 
L 54.296875 0 
L 45.3125 0 
L 45.3125 8.40625 
Q 42.046875 3.421875 37.71875 1 
Q 33.40625 -1.421875 27.6875 -1.421875 
Q 18.265625 -1.421875 13.375 4.4375 
Q 8.5 10.296875 8.5 21.578125 
z
M 31.109375 56 
z
" id="DejaVuSans-117"/>
      <path d="M 18.3125 70.21875 
L 18.3125 54.6875 
L 36.8125 54.6875 
L 36.8125 47.703125 
L 18.3125 47.703125 
L 18.3125 18.015625 
Q 18.3125 11.328125 20.140625 9.421875 
Q 21.96875 7.515625 27.59375 7.515625 
L 36.8125 7.515625 
L 36.8125 0 
L 27.59375 0 
Q 17.1875 0 13.234375 3.875 
Q 9.28125 7.765625 9.28125 18.015625 
L 9.28125 47.703125 
L 2.6875 47.703125 
L 2.6875 54.6875 
L 9.28125 54.6875 
L 9.28125 70.21875 
z
" id="DejaVuSans-116"/>
      <path id="DejaVuSans-32"/>
      <path d="M 45.40625 46.390625 
L 45.40625 75.984375 
L 54.390625 75.984375 
L 54.390625 0 
L 45.40625 0 
L 45.40625 8.203125 
Q 42.578125 3.328125 38.25 0.953125 
Q 33.9375 -1.421875 27.875 -1.421875 
Q 17.96875 -1.421875 11.734375 6.484375 
Q 5.515625 14.40625 5.515625 27.296875 
Q 5.515625 40.1875 11.734375 48.09375 
Q 17.96875 56 27.875 56 
Q 33.9375 56 38.25 53.625 
Q 42.578125 51.265625 45.40625 46.390625 
z
M 14.796875 27.296875 
Q 14.796875 17.390625 18.875 11.75 
Q 22.953125 6.109375 30.078125 6.109375 
Q 37.203125 6.109375 41.296875 11.75 
Q 45.40625 17.390625 45.40625 27.296875 
Q 45.40625 37.203125 41.296875 42.84375 
Q 37.203125 48.484375 30.078125 48.484375 
Q 22.953125 48.484375 18.875 42.84375 
Q 14.796875 37.203125 14.796875 27.296875 
z
" id="DejaVuSans-100"/>
      <path d="M 34.28125 27.484375 
Q 23.390625 27.484375 19.1875 25 
Q 14.984375 22.515625 14.984375 16.5 
Q 14.984375 11.71875 18.140625 8.90625 
Q 21.296875 6.109375 26.703125 6.109375 
Q 34.1875 6.109375 38.703125 11.40625 
Q 43.21875 16.703125 43.21875 25.484375 
L 43.21875 27.484375 
z
M 52.203125 31.203125 
L 52.203125 0 
L 43.21875 0 
L 43.21875 8.296875 
Q 40.140625 3.328125 35.546875 0.953125 
Q 30.953125 -1.421875 24.3125 -1.421875 
Q 15.921875 -1.421875 10.953125 3.296875 
Q 6 8.015625 6 15.921875 
Q 6 25.140625 12.171875 29.828125 
Q 18.359375 34.515625 30.609375 34.515625 
L 43.21875 34.515625 
L 43.21875 35.40625 
Q 43.21875 41.609375 39.140625 45 
Q 35.0625 48.390625 27.6875 48.390625 
Q 23 48.390625 18.546875 47.265625 
Q 14.109375 46.140625 10.015625 43.890625 
L 10.015625 52.203125 
Q 14.9375 54.109375 19.578125 55.046875 
Q 24.21875 56 28.609375 56 
Q 40.484375 56 46.34375 49.84375 
Q 52.203125 43.703125 52.203125 31.203125 
z
" id="DejaVuSans-97"/>
     </defs>
     <use xlink:href="#DejaVuSans-73"/>
     <use x="29.492188" xlink:href="#DejaVuSans-110"/>
     <use x="92.871094" xlink:href="#DejaVuSans-112"/>
     <use x="156.347656" xlink:href="#DejaVuSans-117"/>
     <use x="219.726562" xlink:href="#DejaVuSans-116"/>
     <use x="258.935547" xlink:href="#DejaVuSans-32"/>
     <use x="290.722656" xlink:href="#DejaVuSans-100"/>
     <use x="354.199219" xlink:href="#DejaVuSans-97"/>
     <use x="415.478516" xlink:href="#DejaVuSans-116"/>
     <use x="454.6875" xlink:href="#DejaVuSans-97"/>
    </g>
   </g>
  </g>
 </g>
 <defs>
  <clipPath id="pe4d78eae3c">
   <rect height="217.44" width="334.8" x="28.942188" y="22.318125"/>
  </clipPath>
 </defs>
</svg>
